<svg width="100" height="100" viewBox="0 0 100 100" fill="none" xmlns="http://www.w3.org/2000/svg">
<path fill-rule="evenodd" clip-rule="evenodd" d="M46.3115 13.75C47.0522 13.75 47.4638 13.791 47.5735 13.9139C47.6696 14.0096 47.8067 14.3101 47.8753 14.5696C47.9439 14.8428 47.9439 15.5669 47.8616 16.2772C47.8067 16.9466 47.5598 18.217 47.3403 19.0776C47.1208 19.9382 46.819 21.0174 46.6819 21.4682C46.531 21.919 46.188 22.8752 45.9137 23.5856C45.653 24.2959 45.4747 24.9243 45.5296 24.979C45.5844 25.0336 45.8725 24.897 46.1743 24.6648C46.4761 24.4325 47.4226 23.7768 48.2731 23.2031C49.1374 22.6157 49.9742 22.0556 50.1388 21.9463C50.3171 21.837 50.9756 21.4272 51.6066 21.0447C52.2376 20.6759 53.4448 20.0202 54.2679 19.5967C55.0909 19.1732 56.545 18.5175 57.4916 18.1214C58.4381 17.7389 59.3298 17.37 59.4807 17.3017C59.6316 17.2334 60.4135 16.9192 61.2366 16.6187C62.0459 16.3182 63.1845 15.9493 63.7607 15.7854C64.3505 15.6352 65.448 15.3893 66.2024 15.239C66.9569 15.1024 67.9309 14.9794 68.3699 14.9794C69.1244 14.9794 69.1655 14.9931 69.4947 15.4849C69.6868 15.7718 69.8377 16.1269 69.8377 16.2772C69.8377 16.4275 69.7142 16.9466 69.5633 17.4383C69.3987 17.9301 69.1244 18.7498 68.9186 19.2825C68.7265 19.8153 68.4659 20.4846 68.3287 20.7852C68.2053 21.0857 68.0132 21.5502 67.9035 21.7961C67.7937 22.0556 67.2313 23.2304 66.6414 24.3916C66.0515 25.5664 65.448 26.7275 65.2971 26.9597C65.0776 27.3286 65.0776 27.4105 65.2422 27.4105C65.3519 27.4105 66.079 27.11 66.8609 26.7412C67.6291 26.3587 68.8774 25.8123 69.6319 25.4981C70.3864 25.1839 71.525 24.7467 72.1697 24.5282C72.8145 24.2959 73.6787 24.0091 74.0902 23.8725C74.5018 23.7358 75.6129 23.4353 76.5595 23.2031C77.506 22.9709 79.4128 22.5201 80.812 22.2059C83.3498 21.6185 83.3498 21.6185 89.1114 21.6048L89.8658 21.9873C90.2774 22.1922 91.0181 22.7113 91.4983 23.1484C92.0195 23.6129 92.5408 24.255 92.8152 24.7467C93.0621 25.1975 93.3776 25.9352 93.5148 26.386C93.7068 27.0144 93.7617 27.6428 93.748 29.1181C93.748 30.6071 93.6794 31.2765 93.4462 32.1234C93.2953 32.7245 92.8975 33.8583 92.582 34.6506C92.2528 35.4429 91.5531 36.9456 91.0181 37.9974C90.4831 39.0493 89.564 40.7159 88.9742 41.6858C88.3843 42.6557 87.2869 44.295 86.5324 45.3058C85.7916 46.3167 84.5433 47.8877 83.7614 48.7893C82.9794 49.6909 82.1015 50.6744 81.8134 50.975C81.5253 51.2755 80.7023 52.0678 79.9889 52.7508C79.2619 53.4339 78.2742 54.3491 77.7804 54.7999C77.2865 55.2507 76.0245 56.2479 74.9956 57.0266C73.9668 57.7916 73.034 58.4199 72.9242 58.4199C72.8145 58.4199 72.5676 58.2287 72.3755 58.0101C72.1835 57.7916 72.0326 57.45 72.0326 57.2588C72.0326 57.0402 72.2383 56.7124 72.6224 56.3299C72.9379 56.0157 73.8159 55.3327 74.5704 54.7999C75.3249 54.2671 76.5458 53.3109 77.314 52.6689C78.0684 52.0268 79.4265 50.7291 80.3319 49.8001C81.2373 48.8712 82.3484 47.6554 82.8011 47.0954C83.2538 46.5353 83.8437 45.7976 84.1043 45.4561C84.3787 45.1146 85.1606 43.9671 85.8465 42.9152C86.5324 41.8634 87.424 40.4154 87.8219 39.705C88.2197 38.9947 88.8644 37.7652 89.2622 36.9729C89.6463 36.1806 90.0579 35.32 90.1813 35.0604C90.2911 34.8009 90.5654 34.0632 90.7987 33.4212C91.0181 32.7791 91.3062 31.8365 91.416 31.3038C91.5394 30.771 91.6629 30.006 91.704 29.5962C91.7452 29.1864 91.7178 28.4351 91.6492 27.916C91.5669 27.4105 91.3474 26.6592 91.1416 26.2357C90.9221 25.8123 90.538 25.2112 90.2774 24.9243C90.0167 24.6238 89.4269 24.2003 88.9742 23.9817C88.2746 23.6402 87.9865 23.5719 86.9851 23.5719C86.3403 23.5583 85.3938 23.5992 84.8588 23.6402C84.3238 23.6949 83.6242 23.7905 83.2812 23.8588C82.9383 23.9271 81.7997 24.173 80.7434 24.4052C79.6872 24.6374 78.0547 25.0199 77.1082 25.2385C76.1616 25.4707 75.0916 25.7439 74.7075 25.8669C74.3372 25.9898 73.5004 26.263 72.8556 26.4816C72.2109 26.7002 71.4976 26.9597 71.2781 27.069C71.0586 27.1646 70.5647 27.3969 70.1806 27.5608C69.8103 27.7111 68.9872 28.0936 68.3699 28.3804C67.7389 28.681 67.2039 28.9132 67.1627 28.9132C67.1215 28.9132 66.6414 29.1181 66.1064 29.3777C65.5577 29.6372 64.7346 30.006 64.2819 30.1973C63.8292 30.4022 63.3217 30.5525 63.1571 30.5525C62.9787 30.5525 62.6769 30.3612 62.4575 30.1153C62.238 29.8694 62.0185 29.5143 61.9636 29.323C61.8813 29.0635 61.9636 28.7766 62.2791 28.1619C62.4986 27.7111 63.0199 26.7958 63.404 26.1128C63.8018 25.4298 64.4877 24.1183 64.9404 23.1758C65.3794 22.2332 65.8046 21.3453 65.8732 21.195C65.9281 21.0447 66.0927 20.6759 66.2162 20.3754C66.3396 20.0748 66.6414 19.2689 66.9021 18.5995C67.149 17.9301 67.3273 17.3291 67.2999 17.2744C67.2587 17.2061 67.1078 17.2198 66.9569 17.3017C66.806 17.3837 66.4494 17.4383 66.175 17.4383C65.8869 17.4383 65.3108 17.5476 64.8992 17.6569C64.4877 17.7799 63.596 18.0667 62.9101 18.2853C62.2243 18.5175 61.1543 18.9 60.5095 19.1596C59.8648 19.4191 59.22 19.6923 59.0691 19.747C58.9182 19.8153 58.2461 20.1021 57.5602 20.3754C56.8743 20.6622 55.6397 21.236 54.8166 21.6731C53.9935 22.0966 53.0607 22.602 52.7589 22.7933C52.4571 22.9709 52.1142 23.1621 52.0044 23.2168C51.8947 23.2714 51.6752 23.3943 51.5243 23.4763C51.3734 23.5719 50.7286 23.9954 50.0839 24.4189C49.4392 24.8424 48.5749 25.4161 48.1634 25.6893C47.7519 25.9489 46.9837 26.4816 46.4487 26.8641C45.9137 27.2329 45.0357 27.8613 44.5007 28.2302C43.952 28.6127 43.4033 28.9132 43.2935 28.9132C43.1838 28.9132 42.8683 28.6946 42.6076 28.4351C42.347 28.1755 42.1275 27.8477 42.1275 27.7247C42.1275 27.5881 42.2373 27.1783 42.3882 26.7958C42.5253 26.427 42.8408 25.6483 43.0878 25.0882C43.321 24.5282 43.8285 23.1758 44.1989 22.0829C44.5693 20.9901 45.0083 19.583 45.1592 18.941C45.3101 18.299 45.4884 17.5203 45.557 17.2061C45.6393 16.8783 45.6942 16.4684 45.6942 16.2772C45.6942 16.086 45.6119 15.8947 45.5296 15.8537C45.4335 15.8127 45.0769 15.8674 44.7339 15.9767C44.391 16.0996 43.856 16.2226 43.5405 16.2635C43.2112 16.3045 42.1275 16.6187 41.1398 16.9466C40.1384 17.2608 38.4511 17.9574 37.3948 18.4902C36.3386 19.0093 34.665 19.9246 33.691 20.512C32.717 21.0994 31.1669 22.1376 30.2615 22.8206C29.3561 23.5036 27.8746 24.8014 26.9555 25.703C26.0501 26.6046 24.939 27.793 24.4863 28.3531C24.0473 28.8995 23.4986 29.5826 23.2928 29.8558C23.0733 30.129 22.5109 30.935 22.0445 31.6453C21.5781 32.3556 20.9745 33.3119 20.7001 33.7627C20.4395 34.2135 19.8771 35.2653 19.4518 36.085C19.0403 36.9046 18.4778 38.2707 18.2035 39.0903C17.888 40.0192 17.7096 40.8525 17.7096 41.276C17.7096 41.7131 17.5999 42.1776 17.4078 42.5737C17.2158 42.9426 16.9826 43.2021 16.818 43.2294C16.6396 43.2568 16.4064 43.1201 16.1732 42.8606C15.8577 42.5054 15.7891 42.3142 15.7891 41.6858C15.7891 41.276 15.8577 40.6476 15.94 40.2924C16.0361 39.9236 16.283 39.0903 16.5162 38.4073C16.7357 37.7242 17.3255 36.3445 17.8194 35.3336C18.3132 34.3228 18.9991 33.025 19.3421 32.4649C19.685 31.9048 20.4258 30.7574 20.9882 29.9377C21.5507 29.1181 22.4012 27.9433 22.895 27.3422C23.3751 26.7412 24.4589 25.5527 25.3094 24.6921C26.1462 23.8451 27.2573 22.766 27.7923 22.3015C28.3273 21.837 29.3424 21.0174 30.0558 20.4846C30.7691 19.9655 32.1683 19.0503 33.1423 18.4629C34.1163 17.8755 35.5704 17.0832 36.366 16.687C37.1616 16.2909 38.3277 15.7444 38.9724 15.4849C39.6171 15.2117 40.7832 14.8155 41.5788 14.5833C42.3744 14.3511 43.513 14.0779 44.1166 13.9686C44.7202 13.8593 45.7079 13.7637 46.3115 13.75V13.75ZM46.7642 30.9759C48.0537 30.9623 49.0688 31.0306 49.7821 31.1808C50.3583 31.3038 51.0853 31.495 51.3871 31.6043C51.6889 31.7136 52.4022 32.0005 52.9647 32.2327C53.5271 32.4649 54.6794 33.0523 55.5025 33.5441C56.5176 34.1452 57.3818 34.7872 58.1638 35.5249C58.7948 36.1396 59.6316 37.0549 60.0294 37.5876C60.4272 38.1204 61.0308 39.0903 61.3875 39.7733C61.7441 40.4563 62.1419 41.317 62.5123 42.3688L65.5165 42.4644C67.1764 42.5054 68.754 42.6147 69.0146 42.6967C69.2753 42.7786 69.6594 42.8469 69.8788 42.8469C70.0846 42.8469 70.4961 42.9699 70.7979 43.1201C71.0997 43.2704 71.4701 43.5983 71.621 43.8442C71.7719 44.0764 71.9914 44.7048 72.1149 45.2375C72.3069 46.1391 72.3069 46.3577 72.0326 48.721C71.8817 50.1143 71.6896 51.4667 71.621 51.7263C71.5524 51.9858 71.3741 52.7508 71.2232 53.4339C71.0723 54.1169 70.8528 54.9092 70.7294 55.2097C70.6059 55.5103 70.2629 56.2479 69.9474 56.849C69.6456 57.45 69.1518 58.2833 68.8774 58.6932C68.5894 59.103 67.9035 59.9363 66.3396 61.6165L66.2436 65.0316C66.1887 66.9168 66.079 68.8293 65.9967 69.2801C65.9006 69.7309 65.7909 70.3456 65.736 70.6461C65.6674 70.9467 65.5165 71.5614 65.3931 72.0122C65.2559 72.463 64.9541 73.3509 64.7209 73.993C64.4877 74.635 63.9801 75.7688 63.596 76.5202C63.1982 77.2715 62.6769 78.2004 62.4163 78.5692C62.1694 78.9517 61.6481 79.6484 61.264 80.1402C60.8936 80.632 60.2352 81.3833 59.8236 81.8341C59.4121 82.2712 58.4518 83.1045 57.6973 83.6646C56.9429 84.2384 55.9003 84.9624 55.3653 85.2629C54.8303 85.5771 54.0347 85.9732 53.582 86.1782C53.1293 86.3694 52.3885 86.6289 51.9358 86.7656C51.4831 86.9022 50.7424 87.0934 50.2897 87.2027C49.741 87.3393 48.3463 87.4304 46.1057 87.4759C43.8011 87.5305 42.443 87.4896 41.7846 87.3803C41.2496 87.2983 40.207 87.0661 39.4525 86.8748C38.698 86.6972 37.6829 86.3831 37.1891 86.2055C36.6952 86.0279 35.8996 85.6727 35.4057 85.4405C34.9119 85.1946 33.9516 84.6618 33.2795 84.252C32.6073 83.8285 31.5784 83.1319 31.016 82.6811C30.4536 82.2303 29.5345 81.4379 28.972 80.9052C28.4233 80.3724 27.5865 79.4435 27.1338 78.8424C26.6674 78.2414 25.9541 77.2032 25.5563 76.5202C25.1447 75.8371 24.6372 74.9219 24.4314 74.4711C24.2119 74.0203 23.9101 73.3099 23.7455 72.9001C23.5809 72.4903 23.2928 71.6297 23.1008 70.9876C22.9224 70.3456 22.703 69.485 22.6344 69.0752C22.5658 68.6653 22.456 68.0233 22.3874 67.6408C22.3189 67.272 22.1542 65.7283 22.0308 64.2257C21.8525 62.1356 21.8113 60.5646 21.8662 57.532C21.9073 55.3463 22.0033 52.2454 22.0857 50.6334C22.1817 49.0215 22.3051 47.3959 22.3737 47.0134C22.456 46.6446 22.5795 45.9889 22.6481 45.579C22.7167 45.1692 22.8676 44.7594 22.9499 44.6774C23.0459 44.5955 23.6221 44.4316 24.2256 44.3086C24.9527 44.1583 26.0227 44.0764 27.3808 44.0627C28.5194 44.0627 29.754 44.0081 30.1243 43.9261C30.5084 43.8578 32.0723 43.7485 33.6224 43.6666C35.1725 43.5983 36.8598 43.4753 37.3948 43.407C37.9298 43.3251 40.2207 43.2568 42.5116 43.2568C46.0371 43.2568 46.7367 43.2841 47.2443 43.489C47.5598 43.6119 47.9439 43.8168 48.0948 43.9534C48.2457 44.0764 48.4515 44.4589 48.5612 44.7867C48.6572 45.1009 48.7533 45.4424 48.7807 45.5107C48.7944 45.579 49.0139 45.6747 49.2608 45.7156C49.5077 45.7566 49.7821 45.7156 49.8781 45.6473C49.9604 45.579 50.1113 45.3058 50.1936 45.0736C50.2897 44.8277 50.4406 44.4316 50.5366 44.1993C50.6463 43.8988 50.8795 43.6939 51.3185 43.5163C51.7301 43.3387 52.2513 43.2568 52.8961 43.2568C53.4311 43.2568 54.3365 43.1611 54.9263 43.0518C55.5573 42.9289 56.7645 42.8469 57.9031 42.8469C58.9594 42.8469 59.9471 42.7786 60.098 42.7103C60.3723 42.5737 60.3723 42.5737 60.1117 41.9317C59.9745 41.5628 59.6179 40.8798 59.3161 40.388C59.028 39.8963 58.5067 39.1313 58.1638 38.6805C57.8208 38.2297 57.08 37.4374 56.5176 36.9319C55.9552 36.4128 55.0086 35.6888 54.405 35.3336C53.8015 34.9648 52.8824 34.473 52.3474 34.2408C51.8124 34.0086 50.8658 33.6534 50.2211 33.4485C49.1648 33.1343 48.8356 33.0933 46.8602 33.0797C45.1317 33.0797 44.5281 33.1343 44.048 33.3119C43.7051 33.4348 43.1838 33.6397 42.882 33.7627C42.5802 33.8856 41.9766 34.2408 41.5514 34.5277C41.0438 34.8692 40.6597 35.0331 40.4814 34.9921C40.3305 34.9511 40.111 34.7326 40.0012 34.514C39.8915 34.2954 39.7955 34.0086 39.7955 33.8993C39.7955 33.79 39.8778 33.5305 39.9875 33.3255C40.0973 33.107 40.4814 32.7518 40.838 32.5059C41.2084 32.2737 41.8257 31.9322 42.1961 31.7682C42.5802 31.5907 43.3073 31.3584 43.8423 31.2218C44.5144 31.0579 45.3924 30.9759 46.7642 30.9759V30.9759ZM48.2869 50.8383C48.2046 51.2891 47.9851 52.3683 47.8067 53.2289C47.6147 54.0896 47.3403 55.2234 47.2031 55.7561C47.066 56.2889 46.8739 56.9309 46.7779 57.1905C46.6819 57.45 46.4349 57.9555 46.2155 58.3243C46.0097 58.6795 45.8314 58.9937 45.8314 59.0347C45.8314 59.0757 45.5433 59.4855 45.1866 59.9499C44.8162 60.4144 44.1578 61.0701 43.7051 61.3979C43.2524 61.7258 42.5391 62.1903 42.1275 62.4361C41.716 62.6684 41.1261 62.9689 40.8243 63.0918C40.5225 63.2148 39.9327 63.406 39.5211 63.529C39.1096 63.6383 38.2591 63.8295 37.6418 63.9525C37.0107 64.0617 36.2425 64.1574 35.927 64.1574C35.5978 64.1574 34.8159 64.0617 34.1711 63.9525C33.5264 63.8295 32.6073 63.6109 32.1134 63.4607C31.6196 63.3104 30.7965 62.9826 30.2615 62.723C29.7265 62.4635 28.9995 62.0263 28.6154 61.7531C28.245 61.4799 27.6963 61.0291 27.4082 60.7559C27.1064 60.4827 26.6126 59.9226 26.2833 59.5128C25.9541 59.103 25.474 58.297 25.2133 57.7369C24.9664 57.1768 24.6372 56.3709 24.5 55.961C24.3765 55.5512 24.2119 55.1414 24.1433 55.0731C24.0885 55.0048 23.9924 55.7425 23.9376 56.7124C23.8827 57.6823 23.8827 59.6494 23.9376 61.0837C23.9787 62.5181 24.1022 64.5125 24.2119 65.5234C24.3217 66.5343 24.5137 67.8867 24.6372 68.5287C24.7606 69.1708 25.0624 70.2773 25.2819 70.9876C25.5151 71.698 25.9678 72.8728 26.3108 73.5831C26.6537 74.2935 27.2024 75.3044 27.5591 75.8371C27.902 76.3699 28.4508 77.1349 28.7663 77.5447C29.0818 77.9545 29.7265 78.6922 30.2067 79.184C30.6868 79.6757 31.7293 80.5637 32.525 81.1647C33.3206 81.7521 34.3906 82.5035 34.9256 82.804C35.4606 83.1182 36.4072 83.5963 37.0519 83.8559C37.6966 84.1291 38.7118 84.5116 39.3153 84.7028C39.9189 84.8941 41.0026 85.1536 41.716 85.2766C42.7585 85.4541 43.6228 85.4815 46.1057 85.4268C48.5887 85.3722 49.398 85.3039 50.2211 85.0853C50.7835 84.935 51.5929 84.6755 52.0044 84.5116C52.4159 84.3476 53.3076 83.9378 53.9935 83.5827C54.6794 83.2411 55.6945 82.6127 56.257 82.1756C56.8194 81.7521 57.7522 80.9188 58.3146 80.3314C58.8771 79.7304 59.8099 78.5419 60.3861 77.6813C60.9622 76.8207 61.6344 75.6869 61.8813 75.1541C62.1282 74.6213 62.4986 73.7334 62.7181 73.1733C62.9513 72.6132 63.1845 71.9029 63.2531 71.6024C63.3217 71.3018 63.5137 70.5095 63.6646 69.8265C63.8155 69.1435 63.9939 67.7364 64.0625 66.6846C64.131 65.6327 64.1448 64.2803 64.0899 63.6793C64.0076 62.6411 63.9939 62.5864 63.6646 62.5454C63.4726 62.5181 63.0885 62.6001 62.8141 62.7094C62.526 62.8323 61.9499 62.9279 61.5384 62.9279C61.1268 62.9279 60.3037 62.8186 59.7276 62.6684C59.1377 62.5318 58.3695 62.3132 58.0129 62.1903C57.6425 62.0673 56.9703 61.7804 56.5039 61.5345C56.0238 61.3023 55.4888 60.9881 55.2967 60.8515C55.1047 60.7149 54.9126 60.592 54.8577 60.6056C54.7891 60.6056 54.7891 60.8652 54.8303 61.193C54.8989 61.5755 54.844 62.0263 54.6657 62.5864C54.4874 63.1738 54.2541 63.5563 53.8426 63.9525C53.5134 64.2803 52.9784 64.5945 52.5394 64.7584C51.977 64.9497 51.5243 64.9907 50.6326 64.9497C49.7135 64.9087 49.3431 64.8267 48.8767 64.5535C48.5612 64.3759 48.1908 64.0344 48.0537 63.7885C47.8342 63.3924 47.8342 63.3514 48.0674 63.0099C48.1908 62.8186 48.4378 62.6274 48.6161 62.5864C48.7807 62.5454 49.1922 62.6001 49.5352 62.723C49.8781 62.8323 50.5366 62.9279 51.0167 62.9279C51.7163 62.9279 51.9358 62.8733 52.2513 62.6001C52.5943 62.2995 52.6217 62.1903 52.6217 61.3296C52.608 60.5237 52.5531 60.3051 52.1416 59.6494C51.8809 59.2123 51.6752 58.7068 51.6752 58.4473C51.6615 58.1331 51.7575 57.9008 51.977 57.7233C52.1416 57.5867 52.2788 57.3954 52.2788 57.3271C52.2788 57.2588 52.1142 56.8626 51.9221 56.4801C51.7163 56.084 51.442 55.2917 51.2911 54.7316C51.1539 54.1715 50.9481 53.2836 50.8384 52.7508C50.7286 52.2181 50.5229 50.9886 50.3583 50.0187C50.1936 49.0488 50.0565 48.1336 50.029 48.0106C50.0107 47.8467 49.8781 47.7647 49.6312 47.7647C49.4254 47.7647 49.2334 47.6964 49.1922 47.6281C49.1511 47.5598 49.0413 47.4915 48.9316 47.4915C48.7944 47.4915 48.6984 47.8467 48.5887 48.7619C48.5063 49.445 48.3692 50.3876 48.2869 50.8383V50.8383ZM16.0635 50.1826C16.5573 50.2236 17.1884 50.3739 17.4764 50.5105C17.8057 50.6744 18.08 50.9613 18.2584 51.3165C18.4093 51.617 18.5327 51.9722 18.5327 52.1088C18.5327 52.2317 18.3818 52.5049 18.1898 52.7235C17.9977 52.9284 17.7508 53.0923 17.6411 53.0923C17.5313 53.0923 17.2021 52.9284 16.9277 52.7235C16.4887 52.382 16.2967 52.341 13.9372 52.259L12.8398 52.8874C12.2362 53.2289 11.4406 53.8027 11.0839 54.1579C10.7272 54.513 10.2197 55.1141 9.97274 55.4829C9.72582 55.8654 9.34172 56.6304 9.10851 57.1905C8.87531 57.7506 8.61467 58.5019 8.53236 58.8707C8.45005 59.2259 8.38146 59.9226 8.38146 60.4417C8.38146 60.9471 8.47749 61.6985 8.58723 62.1083C8.69698 62.5181 8.98505 63.2558 9.21826 63.7476C9.52005 64.4033 9.94531 64.936 10.8233 65.7966C11.8521 66.8075 12.1402 66.9988 12.8398 67.2173C13.512 67.4359 13.9098 67.4632 15.0346 67.3949C15.7891 67.3539 16.7494 67.2173 17.1609 67.108C17.6548 66.9851 18.0252 66.9578 18.2309 67.0397C18.4641 67.1354 18.5327 67.272 18.5327 67.6408C18.5327 68.0096 18.423 68.2145 18.0937 68.5424C17.8468 68.7746 17.4902 68.9932 17.2981 69.0342C17.1061 69.0615 16.7631 69.1708 16.5436 69.2527C16.3241 69.3484 15.4873 69.4167 14.6917 69.4167C13.7314 69.4167 13.0044 69.3347 12.4968 69.1844C12.0853 69.0615 11.3445 68.6927 10.8644 68.3648C10.3843 68.037 9.61608 67.3676 9.14967 66.8758C8.68326 66.3704 8.10711 65.6327 7.8739 65.2366C7.62698 64.8267 7.24288 64.0754 7.02339 63.5426C6.81762 63.0099 6.52955 61.999 6.40609 61.2887C6.20032 60.1139 6.20032 59.9089 6.39237 59.103C6.50211 58.6112 6.7216 57.8189 6.87249 57.3271C7.02339 56.8353 7.42121 55.9747 7.75044 55.4146C8.09339 54.8545 8.6421 54.0349 8.98505 53.6114C9.328 53.1743 10.0962 52.4503 10.6861 51.9858C11.2622 51.535 12.1402 50.9613 12.634 50.7291C13.1279 50.5105 13.8961 50.2783 14.3488 50.2236C14.8014 50.169 15.5696 50.1553 16.0635 50.1826V50.1826ZM75.3249 58.0238C75.4346 58.0238 75.9284 58.1331 76.4223 58.297C76.9161 58.4473 77.5609 58.7205 77.8627 58.8844C78.1645 59.062 78.672 59.4855 79.0013 59.8406C79.3168 60.1822 79.6597 60.633 79.7695 60.8515C79.8792 61.0564 80.0713 61.6165 80.1947 62.1083C80.3182 62.6001 80.4142 63.3651 80.4142 63.8159C80.4142 64.2667 80.3182 65.0316 80.2221 65.5234C80.1124 66.0152 79.9204 66.7255 79.7832 67.0944C79.6597 67.4769 79.4539 67.9687 79.3442 68.1872C79.2207 68.4058 78.8366 68.9932 78.4937 69.4713C78.1507 69.9631 77.4923 70.7008 77.0259 71.1106C76.5732 71.5341 75.6404 72.2444 74.9682 72.6815C74.296 73.1323 73.0614 73.8427 72.2383 74.2662C71.4152 74.676 70.3315 75.1678 69.8377 75.3317C69.3438 75.4956 68.8226 75.6322 68.6717 75.6322C68.5208 75.6322 68.2327 75.5229 68.0269 75.359C67.8074 75.2087 67.6428 74.9492 67.6428 74.7853C67.6428 74.6077 67.78 74.3345 67.9446 74.1705C68.123 74.0066 68.7814 73.6514 69.4262 73.3782C70.0709 73.105 70.9626 72.6952 71.4152 72.463C71.8679 72.2444 72.8282 71.698 73.5415 71.2608C74.296 70.7964 75.2974 70.0314 75.9147 69.4303C76.7652 68.597 77.0807 68.1599 78.137 66.0015L78.1233 64.294C78.1233 62.7094 78.0959 62.5318 77.7529 61.8761C77.5472 61.4799 77.1768 61.0154 76.9436 60.8515C76.6966 60.6876 76.1891 60.469 75.805 60.3734C75.4346 60.2778 74.8996 60.2095 74.6115 60.2368C74.2686 60.2505 74.0217 60.1822 73.8296 59.9909C73.665 59.8406 73.5415 59.5948 73.5415 59.4445C73.5415 59.2942 73.6513 59.0347 73.7884 58.8571C73.9119 58.6932 74.2686 58.4336 74.5704 58.2833C74.8722 58.1467 75.2151 58.0238 75.3249 58.0238V58.0238ZM41.8532 67.1627C41.9629 67.1627 42.1687 67.2583 42.2921 67.3949C42.4156 67.5315 42.6214 68.0643 42.7585 68.597C42.8957 69.1298 43.1289 69.8675 43.3073 70.2363C43.4719 70.6188 43.8834 71.2882 44.2126 71.739C44.5556 72.1898 45.1317 72.7635 45.5021 73.0094C45.8725 73.2553 46.5721 73.5831 47.066 73.7471C47.7107 73.952 48.1908 74.0066 48.7807 73.9656C49.3157 73.9383 49.8781 73.7744 50.3583 73.5285C50.7698 73.3236 51.4694 72.8045 51.9084 72.381C52.3474 71.9575 52.8 71.4521 52.8961 71.2608C52.9921 71.0696 53.3076 70.3046 53.582 69.5533C53.87 68.802 54.1993 68.1053 54.3227 68.0096C54.4462 67.914 54.7343 67.8457 54.9538 67.873C55.283 67.9004 55.4202 68.0233 55.6259 68.4604C55.8729 68.9932 55.8729 69.0342 55.6397 69.8948C55.5025 70.3866 55.1732 71.2062 54.9126 71.739C54.5697 72.4083 54.117 72.9957 53.3899 73.7197C52.7177 74.3754 52.0456 74.8809 51.5243 75.1404C51.0716 75.359 50.3034 75.6186 49.8095 75.7142C49.3157 75.8235 48.7258 75.9054 48.5063 75.9054C48.2869 75.9054 47.6284 75.8098 47.066 75.6869C46.5035 75.5776 45.7079 75.3044 45.2964 75.1131C44.8848 74.9082 44.1166 74.3481 43.5953 73.8563C42.9917 73.2963 42.4156 72.5859 42.0315 71.9439C41.7023 71.3838 41.3182 70.5232 41.1673 70.0314C41.0164 69.5396 40.8929 68.9112 40.8929 68.638C40.8929 68.3512 40.9889 67.9413 41.0987 67.7228C41.2084 67.5042 41.3868 67.2993 41.4828 67.2583C41.5651 67.2173 41.7434 67.1763 41.8532 67.1627V67.1627Z" fill="#BBCC8C"/>
</svg>
